<?xml version="1.0" encoding="utf-8"?>
<!-- Generator: Adobe Illustrator 15.0.0, SVG Export Plug-In . SVG Version: 6.00 Build 0)  -->
<!DOCTYPE svg PUBLIC "-//W3C//DTD SVG 1.1//EN" "http://www.w3.org/Graphics/SVG/1.1/DTD/svg11.dtd">
<svg version="1.1" id="Layer_2" xmlns="http://www.w3.org/2000/svg" xmlns:xlink="http://www.w3.org/1999/xlink" x="0px" y="0px"
     width="841.89px" height="595.275px" viewBox="0 0 841.89 595.275" enable-background="new 0 0 841.89 595.275"
     xml:space="preserve">
<!--<svg id="有色" xmlns="http://www.w3.org/2000/svg" width="810" height="470" viewBox="0 0 810 470">-->
  <rect name="矩形_1" fill="#fabe00" stroke="#000" stroke-width="5px" x="2.5" y="2.5" width="805" height="465"/>
  <rect name="矩形_2"  x="51.5" y="47.5" stroke-width="5px" stroke="#fff" fill="#0060b1" width="713" height="381"/>
  <circle name="抛球区"  stroke="#fff" stroke-width="4px" fill="#7d0000" cx="408.5" cy="240.5" r="48"/>
  <path name="中线" fill="#fff" stroke-width="7px" fill-rule="evenodd" stroke="#fff" d="M407,48l1-.008,3,380-1,.008Z" transform="translate(-22.5 -83.5)"/>
  <path name="左三分"  stroke-width="4px" fill-rule="evenodd" stroke="#fff" fill="none" d="M90,82a160,160,0,0,1,0,320" transform="translate(-22.5 -83.5)"/>
  <path name="左三秒" stroke-width="4px" fill-rule="evenodd" stroke="#fff" fill="#7d0000" d="M54,159l129,29v96L54,311V247Z" transform="translate(-22.5 -83.5)"/>
  <path name="左罚实半"  stroke-width="4px" fill-rule="evenodd" stroke="#fff" fill="none" d="M200.5,188a48.5,48.5,0,0,1,0,97" transform="translate(-22.5 -83.5)"/>
  <path name="左罚虚半"  stroke-width="4px" fill-rule="evenodd" stroke="#fff" fill="none" stroke-dasharray="16 8" d="M200,285a48.5,48.5,0,0,1,0-97" transform="translate(-22.5 -83.5)"/>
  <path name="右三分"  stroke-width="4px" fill-rule="evenodd" stroke="#fff" fill="none" d="M725,400a160,160,0,0,1,0-320" transform="translate(-22.5 -83.5)"/>
  <path name="右三秒" stroke-width="4px" fill-rule="evenodd" stroke="#fff" fill="#7d0000" d="M764,319L635,290V194l128-27V399Z" transform="translate(-22.5 -83.5)"/>
  <path name="右罚实半" stroke-width="4px" fill-rule="evenodd" stroke="#fff" fill="none" d="M615.5,290a48.5,48.5,0,0,1,0-97" transform="translate(-22.5 -83.5)"/>
  <path name="右罚虚半" stroke-width="4px" fill-rule="evenodd" stroke="#fff" fill="none" stroke-dasharray="16 8" d="M615.5,193a48.5,48.5,0,0,1,0,97" transform="translate(-22.5 -83.5)"/>
</svg>
